# xmcd
#
# Track frame offsets:
#	150
#	22922
#	42930
#	59175
#	61397
#	83475
#	96182
#	122130
#	140652
#	159432
#	175835
#	177597
#	198795
#	221152
#	246200
#
# Disc length: 3497 seconds
#
# Revision: 3
# Processed by: cddbd v1.5.2PL0 Copyright (c) Steve Scherf et al.
# Submitted via: audiograbber 1.83.01
#
DISCID=d60da70f
DTITLE=Lifers Group - Living Proof
DYEAR=1993
DGENRE=Rap
TTITLE0=One Life To Live
TTITLE1=Let Me Out (Edit)
TTITLE2=Rise And Fall
TTITLE3=Prison Break 1
TTITLE4=Cuff 'Em Up
TTITLE5=Emotional Violence
TTITLE6=Freestyle 1
TTITLE7=Out Of Sight, Out Of Mind
TTITLE8=Living Proof
TTITLE9=Short Life Of A Gansta
TTITLE10=Prison Break 2
TTITLE11=Prison Is The Death Of A Poor Man
TTITLE12=Back In The Days
TTITLE13=Jack U. Back (So U Wanna Be A Gangsta)
TTITLE14=Short Life Of A Gangsta (Organized Konfusion Mix)
EXTD=www.RapMusicGuide.com
EXTT0=
EXTT1=
EXTT2=
EXTT3=
EXTT4=
EXTT5=
EXTT6=
EXTT7=
EXTT8=
EXTT9=
EXTT10=
EXTT11=
EXTT12=
EXTT13=
EXTT14=
PLAYORDER=
